<svg width="2200" height="2200" viewBox="0 0 2200 2200" fill="none" xmlns="http://www.w3.org/2000/svg">
<rect width="2200" height="2200" fill="#1E1E1E"/>
<!-- <path d="M1058 128H128V1058H1058V128Z" fill="white"/> -->
<path d="M956.751 311H228.682C185.848 311 151 345.848 151 388.682V798.121C151 840.954 185.848 875.803 228.682 875.803H956.75C999.584 875.803 1034.43 840.955 1034.43 798.121V388.682C1034.43 345.848 999.585 311 956.751 311ZM956.751 330.102C971.982 330.102 985.87 335.949 996.3 345.511L632.166 608.567C608.572 625.615 576.865 625.615 553.271 608.567L189.135 345.509C199.564 335.948 213.452 330.102 228.682 330.102H956.751ZM170.102 798.121V388.682C170.102 378.488 172.724 368.897 177.322 360.539L513.185 603.173L186.765 838.985C176.466 828.423 170.102 814.005 170.102 798.121ZM228.682 856.701C219.495 856.701 210.798 854.57 203.051 850.784L529.494 614.955L542.084 624.05C557.227 634.991 574.973 640.461 592.718 640.461C610.464 640.461 628.209 634.991 643.352 624.05L655.943 614.954L982.384 850.783C974.637 854.57 965.939 856.701 956.751 856.701H228.682ZM1015.33 798.121C1015.33 814.003 1008.97 828.421 998.669 838.983L672.252 603.173L1008.11 360.542C1012.71 368.899 1015.33 378.489 1015.33 388.682V798.121H1015.33Z" fill="black"/>
</svg>
