<svg width="150" height="150" viewBox="0 0 150 150" fill="none" xmlns="http://www.w3.org/2000/svg">
<g clip-path="url(#clip0_1_114)">
<path d="M74.5 86.8211C80.7516 86.8211 85.8195 81.5286 85.8195 75C85.8195 68.4714 80.7516 63.179 74.5 63.179C68.2484 63.179 63.1804 68.4714 63.1804 75C63.1804 81.5286 68.2484 86.8211 74.5 86.8211Z" fill="#61DAFB"/>
<path d="M74.5 99.2188C108.045 99.2188 135.239 88.3757 135.239 75C135.239 61.6244 108.045 50.7812 74.5 50.7812C40.9547 50.7812 13.7609 61.6244 13.7609 75C13.7609 88.3757 40.9547 99.2188 74.5 99.2188Z" stroke="#61DAFB"/>
<path d="M54.4157 87.1094C71.1884 117.448 93.7773 136.62 104.87 129.932C115.962 123.244 111.357 93.2287 94.5842 62.8906C77.8116 32.5525 55.2226 13.3801 44.1304 20.0679C33.0382 26.7558 37.6431 56.7712 54.4157 87.1094Z" stroke="#61DAFB"/>
<path d="M54.4157 62.8906C37.6431 93.2287 33.0382 123.244 44.1304 129.932C55.2226 136.62 77.8116 117.447 94.5842 87.1094C111.357 56.7712 115.962 26.7558 104.87 20.0679C93.7773 13.3801 71.1884 32.5525 54.4157 62.8906Z" stroke="#61DAFB"/>
</g>
<defs>
<clipPath id="clip0_1_114">
<rect width="127" height="118" fill="white" transform="translate(11 16)"/>
</clipPath>
</defs>
</svg>
