<svg width="221" height="221" viewBox="0 0 221 221" fill="none" xmlns="http://www.w3.org/2000/svg">
    <rect width="221" height="221" fill="" />
    <circle cx="2" cy="2" r="2" fill="#ABB2BF" />
    <circle cx="14.0555" cy="2" r="2" fill="#ABB2BF" />
    <circle cx="26.1111" cy="2" r="2" fill="#ABB2BF" />
    <circle cx="38.1667" cy="2" r="2" fill="#ABB2BF" />
    <circle cx="50.2222" cy="2" r="2" fill="#ABB2BF" />
    <circle cx="62.2778" cy="2" r="2" fill="#ABB2BF" />
    <circle cx="74.3333" cy="2" r="2" fill="#ABB2BF" />
    <circle cx="86.3889" cy="2" r="2" fill="#ABB2BF" />
    <circle cx="98.4445" cy="2" r="2" fill="#ABB2BF" />
    <circle cx="110.5" cy="2" r="2" fill="#ABB2BF" />
    <circle cx="122.556" cy="2" r="2" fill="#ABB2BF" />
    <circle cx="134.611" cy="2" r="2" fill="#ABB2BF" />
    <circle cx="146.667" cy="2" r="2" fill="#ABB2BF" />
    <circle cx="158.722" cy="2" r="2" fill="#ABB2BF" />
    <circle cx="170.778" cy="2" r="2" fill="#ABB2BF" />
    <circle cx="182.833" cy="2" r="2" fill="#ABB2BF" />
    <circle cx="194.889" cy="2" r="2" fill="#ABB2BF" />
    <circle cx="206.944" cy="2" r="2" fill="#ABB2BF" />
    <circle cx="219" cy="2" r="2" fill="#ABB2BF" />
    <circle cx="2" cy="10.3462" r="2" fill="#ABB2BF" />
    <circle cx="14.0555" cy="10.3462" r="2" fill="#ABB2BF" />
    <circle cx="26.1111" cy="10.3462" r="2" fill="#ABB2BF" />
    <circle cx="38.1667" cy="10.3462" r="2" fill="#ABB2BF" />
    <circle cx="50.2222" cy="10.3462" r="2" fill="#ABB2BF" />
    <circle cx="62.2778" cy="10.3462" r="2" fill="#ABB2BF" />
    <circle cx="74.3333" cy="10.3462" r="2" fill="#ABB2BF" />
    <circle cx="86.3889" cy="10.3462" r="2" fill="#ABB2BF" />
    <circle cx="98.4445" cy="10.3462" r="2" fill="#ABB2BF" />
    <circle cx="110.5" cy="10.3462" r="2" fill="#ABB2BF" />
    <circle cx="122.556" cy="10.3462" r="2" fill="#ABB2BF" />
    <circle cx="134.611" cy="10.3462" r="2" fill="#ABB2BF" />
    <circle cx="146.667" cy="10.3462" r="2" fill="#ABB2BF" />
    <circle cx="158.722" cy="10.3462" r="2" fill="#ABB2BF" />
    <circle cx="170.778" cy="10.3462" r="2" fill="#ABB2BF" />
    <circle cx="182.833" cy="10.3462" r="2" fill="#ABB2BF" />
    <circle cx="194.889" cy="10.3462" r="2" fill="#ABB2BF" />
    <circle cx="206.944" cy="10.3462" r="2" fill="#ABB2BF" />
    <circle cx="219" cy="10.3462" r="2" fill="#ABB2BF" />
    <circle cx="2" cy="18.6923" r="2" fill="#ABB2BF" />
    <circle cx="14.0555" cy="18.6923" r="2" fill="#ABB2BF" />
    <circle cx="26.1111" cy="18.6923" r="2" fill="#ABB2BF" />
    <circle cx="38.1667" cy="18.6923" r="2" fill="#ABB2BF" />
    <circle cx="50.2222" cy="18.6923" r="2" fill="#ABB2BF" />
    <circle cx="62.2778" cy="18.6923" r="2" fill="#ABB2BF" />
    <circle cx="74.3333" cy="18.6923" r="2" fill="#ABB2BF" />
    <circle cx="86.3889" cy="18.6923" r="2" fill="#ABB2BF" />
    <circle cx="98.4445" cy="18.6923" r="2" fill="#ABB2BF" />
    <circle cx="110.5" cy="18.6923" r="2" fill="#ABB2BF" />
    <circle cx="122.556" cy="18.6923" r="2" fill="#ABB2BF" />
    <circle cx="134.611" cy="18.6923" r="2" fill="#ABB2BF" />
    <circle cx="146.667" cy="18.6923" r="2" fill="#ABB2BF" />
    <circle cx="158.722" cy="18.6923" r="2" fill="#ABB2BF" />
    <circle cx="170.778" cy="18.6923" r="2" fill="#ABB2BF" />
    <circle cx="182.833" cy="18.6923" r="2" fill="#ABB2BF" />
    <circle cx="194.889" cy="18.6923" r="2" fill="#ABB2BF" />
    <circle cx="206.944" cy="18.6923" r="2" fill="#ABB2BF" />
    <circle cx="219" cy="18.6923" r="2" fill="#ABB2BF" />
    <circle cx="2" cy="27.0385" r="2" fill="#ABB2BF" />
    <circle cx="14.0555" cy="27.0385" r="2" fill="#ABB2BF" />
    <circle cx="26.1111" cy="27.0385" r="2" fill="#ABB2BF" />
    <circle cx="38.1667" cy="27.0385" r="2" fill="#ABB2BF" />
    <circle cx="50.2222" cy="27.0385" r="2" fill="#ABB2BF" />
    <circle cx="62.2778" cy="27.0385" r="2" fill="#ABB2BF" />
    <circle cx="74.3333" cy="27.0385" r="2" fill="#ABB2BF" />
    <circle cx="86.3889" cy="27.0385" r="2" fill="#ABB2BF" />
    <circle cx="98.4445" cy="27.0385" r="2" fill="#ABB2BF" />
    <circle cx="110.5" cy="27.0385" r="2" fill="#ABB2BF" />
    <circle cx="122.556" cy="27.0385" r="2" fill="#ABB2BF" />
    <circle cx="134.611" cy="27.0385" r="2" fill="#ABB2BF" />
    <circle cx="146.667" cy="27.0385" r="2" fill="#ABB2BF" />
    <circle cx="158.722" cy="27.0385" r="2" fill="#ABB2BF" />
    <circle cx="170.778" cy="27.0385" r="2" fill="#ABB2BF" />
    <circle cx="182.833" cy="27.0385" r="2" fill="#ABB2BF" />
    <circle cx="194.889" cy="27.0385" r="2" fill="#ABB2BF" />
    <circle cx="206.944" cy="27.0385" r="2" fill="#ABB2BF" />
    <circle cx="219" cy="27.0385" r="2" fill="#ABB2BF" />
    <circle cx="2" cy="35.3846" r="2" fill="#ABB2BF" />
    <circle cx="14.0555" cy="35.3846" r="2" fill="#ABB2BF" />
    <circle cx="26.1111" cy="35.3846" r="2" fill="#ABB2BF" />
    <circle cx="38.1667" cy="35.3846" r="2" fill="#ABB2BF" />
    <circle cx="50.2222" cy="35.3846" r="2" fill="#ABB2BF" />
    <circle cx="62.2778" cy="35.3846" r="2" fill="#ABB2BF" />
    <circle cx="74.3333" cy="35.3846" r="2" fill="#ABB2BF" />
    <circle cx="86.3889" cy="35.3846" r="2" fill="#ABB2BF" />
    <circle cx="98.4445" cy="35.3846" r="2" fill="#ABB2BF" />
    <circle cx="110.5" cy="35.3846" r="2" fill="#ABB2BF" />
    <circle cx="122.556" cy="35.3846" r="2" fill="#ABB2BF" />
    <circle cx="134.611" cy="35.3846" r="2" fill="#ABB2BF" />
    <circle cx="146.667" cy="35.3846" r="2" fill="#ABB2BF" />
    <circle cx="158.722" cy="35.3846" r="2" fill="#ABB2BF" />
    <circle cx="170.778" cy="35.3846" r="2" fill="#ABB2BF" />
    <circle cx="182.833" cy="35.3846" r="2" fill="#ABB2BF" />
    <circle cx="194.889" cy="35.3846" r="2" fill="#ABB2BF" />
    <circle cx="206.944" cy="35.3846" r="2" fill="#ABB2BF" />
    <circle cx="219" cy="35.3846" r="2" fill="#ABB2BF" />
    <circle cx="2" cy="43.7308" r="2" fill="#ABB2BF" />
    <circle cx="14.0555" cy="43.7308" r="2" fill="#ABB2BF" />
    <circle cx="26.1111" cy="43.7308" r="2" fill="#ABB2BF" />
    <circle cx="38.1667" cy="43.7308" r="2" fill="#ABB2BF" />
    <circle cx="50.2222" cy="43.7308" r="2" fill="#ABB2BF" />
    <circle cx="62.2778" cy="43.7308" r="2" fill="#ABB2BF" />
    <circle cx="74.3333" cy="43.7308" r="2" fill="#ABB2BF" />
    <circle cx="86.3889" cy="43.7308" r="2" fill="#ABB2BF" />
    <circle cx="98.4445" cy="43.7308" r="2" fill="#ABB2BF" />
    <circle cx="110.5" cy="43.7308" r="2" fill="#ABB2BF" />
    <circle cx="122.556" cy="43.7308" r="2" fill="#ABB2BF" />
    <circle cx="134.611" cy="43.7308" r="2" fill="#ABB2BF" />
    <circle cx="146.667" cy="43.7308" r="2" fill="#ABB2BF" />
    <circle cx="158.722" cy="43.7308" r="2" fill="#ABB2BF" />
    <circle cx="170.778" cy="43.7308" r="2" fill="#ABB2BF" />
    <circle cx="182.833" cy="43.7308" r="2" fill="#ABB2BF" />
    <circle cx="194.889" cy="43.7308" r="2" fill="#ABB2BF" />
    <circle cx="206.944" cy="43.7308" r="2" fill="#ABB2BF" />
    <circle cx="219" cy="43.7308" r="2" fill="#ABB2BF" />
    <circle cx="2" cy="52.0769" r="2" fill="#ABB2BF" />
    <circle cx="14.0555" cy="52.0769" r="2" fill="#ABB2BF" />
    <circle cx="26.1111" cy="52.0769" r="2" fill="#ABB2BF" />
    <circle cx="38.1667" cy="52.0769" r="2" fill="#ABB2BF" />
    <circle cx="50.2222" cy="52.0769" r="2" fill="#ABB2BF" />
    <circle cx="62.2778" cy="52.0769" r="2" fill="#ABB2BF" />
    <circle cx="74.3333" cy="52.0769" r="2" fill="#ABB2BF" />
    <circle cx="86.3889" cy="52.0769" r="2" fill="#ABB2BF" />
    <circle cx="98.4445" cy="52.0769" r="2" fill="#ABB2BF" />
    <circle cx="110.5" cy="52.0769" r="2" fill="#ABB2BF" />
    <circle cx="122.556" cy="52.0769" r="2" fill="#ABB2BF" />
    <circle cx="134.611" cy="52.0769" r="2" fill="#ABB2BF" />
    <circle cx="146.667" cy="52.0769" r="2" fill="#ABB2BF" />
    <circle cx="158.722" cy="52.0769" r="2" fill="#ABB2BF" />
    <circle cx="170.778" cy="52.0769" r="2" fill="#ABB2BF" />
    <circle cx="182.833" cy="52.0769" r="2" fill="#ABB2BF" />
    <circle cx="194.889" cy="52.0769" r="2" fill="#ABB2BF" />
    <circle cx="206.944" cy="52.0769" r="2" fill="#ABB2BF" />
    <circle cx="219" cy="52.0769" r="2" fill="#ABB2BF" />
    <circle cx="2" cy="60.4231" r="2" fill="#ABB2BF" />
    <circle cx="14.0555" cy="60.4231" r="2" fill="#ABB2BF" />
    <circle cx="26.1111" cy="60.4231" r="2" fill="#ABB2BF" />
    <circle cx="38.1667" cy="60.4231" r="2" fill="#ABB2BF" />
    <circle cx="50.2222" cy="60.4231" r="2" fill="#ABB2BF" />
    <circle cx="62.2778" cy="60.4231" r="2" fill="#ABB2BF" />
    <circle cx="74.3333" cy="60.4231" r="2" fill="#ABB2BF" />
    <circle cx="86.3889" cy="60.4231" r="2" fill="#ABB2BF" />
    <circle cx="98.4445" cy="60.4231" r="2" fill="#ABB2BF" />
    <circle cx="110.5" cy="60.4231" r="2" fill="#ABB2BF" />
    <circle cx="122.556" cy="60.4231" r="2" fill="#ABB2BF" />
    <circle cx="134.611" cy="60.4231" r="2" fill="#ABB2BF" />
    <circle cx="146.667" cy="60.4231" r="2" fill="#ABB2BF" />
    <circle cx="158.722" cy="60.4231" r="2" fill="#ABB2BF" />
    <circle cx="170.778" cy="60.4231" r="2" fill="#ABB2BF" />
    <circle cx="182.833" cy="60.4231" r="2" fill="#ABB2BF" />
    <circle cx="194.889" cy="60.4231" r="2" fill="#ABB2BF" />
    <circle cx="206.944" cy="60.4231" r="2" fill="#ABB2BF" />
    <circle cx="219" cy="60.4231" r="2" fill="#ABB2BF" />
    <circle cx="2" cy="68.7692" r="2" fill="#ABB2BF" />
    <circle cx="14.0555" cy="68.7692" r="2" fill="#ABB2BF" />
    <circle cx="26.1111" cy="68.7692" r="2" fill="#ABB2BF" />
    <circle cx="38.1667" cy="68.7692" r="2" fill="#ABB2BF" />
    <circle cx="50.2222" cy="68.7692" r="2" fill="#ABB2BF" />
    <circle cx="62.2778" cy="68.7692" r="2" fill="#ABB2BF" />
    <circle cx="74.3333" cy="68.7692" r="2" fill="#ABB2BF" />
    <circle cx="86.3889" cy="68.7692" r="2" fill="#ABB2BF" />
    <circle cx="98.4445" cy="68.7692" r="2" fill="#ABB2BF" />
    <circle cx="110.5" cy="68.7692" r="2" fill="#ABB2BF" />
    <circle cx="122.556" cy="68.7692" r="2" fill="#ABB2BF" />
    <circle cx="134.611" cy="68.7692" r="2" fill="#ABB2BF" />
    <circle cx="146.667" cy="68.7692" r="2" fill="#ABB2BF" />
    <circle cx="158.722" cy="68.7692" r="2" fill="#ABB2BF" />
    <circle cx="170.778" cy="68.7692" r="2" fill="#ABB2BF" />
    <circle cx="182.833" cy="68.7692" r="2" fill="#ABB2BF" />
    <circle cx="194.889" cy="68.7692" r="2" fill="#ABB2BF" />
    <circle cx="206.944" cy="68.7692" r="2" fill="#ABB2BF" />
    <circle cx="219" cy="68.7692" r="2" fill="#ABB2BF" />
    <circle cx="2" cy="77.1154" r="2" fill="#ABB2BF" />
    <circle cx="14.0555" cy="77.1154" r="2" fill="#ABB2BF" />
    <circle cx="26.1111" cy="77.1154" r="2" fill="#ABB2BF" />
    <circle cx="38.1667" cy="77.1154" r="2" fill="#ABB2BF" />
    <circle cx="50.2222" cy="77.1154" r="2" fill="#ABB2BF" />
    <circle cx="62.2778" cy="77.1154" r="2" fill="#ABB2BF" />
    <circle cx="74.3333" cy="77.1154" r="2" fill="#ABB2BF" />
    <circle cx="86.3889" cy="77.1154" r="2" fill="#ABB2BF" />
    <circle cx="98.4445" cy="77.1154" r="2" fill="#ABB2BF" />
    <circle cx="110.5" cy="77.1154" r="2" fill="#ABB2BF" />
    <circle cx="122.556" cy="77.1154" r="2" fill="#ABB2BF" />
    <circle cx="134.611" cy="77.1154" r="2" fill="#ABB2BF" />
    <circle cx="146.667" cy="77.1154" r="2" fill="#ABB2BF" />
    <circle cx="158.722" cy="77.1154" r="2" fill="#ABB2BF" />
    <circle cx="170.778" cy="77.1154" r="2" fill="#ABB2BF" />
    <circle cx="182.833" cy="77.1154" r="2" fill="#ABB2BF" />
    <circle cx="194.889" cy="77.1154" r="2" fill="#ABB2BF" />
    <circle cx="206.944" cy="77.1154" r="2" fill="#ABB2BF" />
    <circle cx="219" cy="77.1154" r="2" fill="#ABB2BF" />
    <circle cx="2" cy="85.4615" r="2" fill="#ABB2BF" />
    <circle cx="14.0555" cy="85.4615" r="2" fill="#ABB2BF" />
    <circle cx="26.1111" cy="85.4615" r="2" fill="#ABB2BF" />
    <circle cx="38.1667" cy="85.4615" r="2" fill="#ABB2BF" />
    <circle cx="50.2222" cy="85.4615" r="2" fill="#ABB2BF" />
    <circle cx="62.2778" cy="85.4615" r="2" fill="#ABB2BF" />
    <circle cx="74.3333" cy="85.4615" r="2" fill="#ABB2BF" />
    <circle cx="86.3889" cy="85.4615" r="2" fill="#ABB2BF" />
    <circle cx="98.4445" cy="85.4615" r="2" fill="#ABB2BF" />
    <circle cx="110.5" cy="85.4615" r="2" fill="#ABB2BF" />
    <circle cx="122.556" cy="85.4615" r="2" fill="#ABB2BF" />
    <circle cx="134.611" cy="85.4615" r="2" fill="#ABB2BF" />
    <circle cx="146.667" cy="85.4615" r="2" fill="#ABB2BF" />
    <circle cx="158.722" cy="85.4615" r="2" fill="#ABB2BF" />
    <circle cx="170.778" cy="85.4615" r="2" fill="#ABB2BF" />
    <circle cx="182.833" cy="85.4615" r="2" fill="#ABB2BF" />
    <circle cx="194.889" cy="85.4615" r="2" fill="#ABB2BF" />
    <circle cx="206.944" cy="85.4615" r="2" fill="#ABB2BF" />
    <circle cx="219" cy="85.4615" r="2" fill="#ABB2BF" />
    <circle cx="2" cy="93.8077" r="2" fill="#ABB2BF" />
    <circle cx="14.0555" cy="93.8077" r="2" fill="#ABB2BF" />
    <circle cx="26.1111" cy="93.8077" r="2" fill="#ABB2BF" />
    <circle cx="38.1667" cy="93.8077" r="2" fill="#ABB2BF" />
    <circle cx="50.2222" cy="93.8077" r="2" fill="#ABB2BF" />
    <circle cx="62.2778" cy="93.8077" r="2" fill="#ABB2BF" />
    <circle cx="74.3333" cy="93.8077" r="2" fill="#ABB2BF" />
    <circle cx="86.3889" cy="93.8077" r="2" fill="#ABB2BF" />
    <circle cx="98.4445" cy="93.8077" r="2" fill="#ABB2BF" />
    <circle cx="110.5" cy="93.8077" r="2" fill="#ABB2BF" />
    <circle cx="122.556" cy="93.8077" r="2" fill="#ABB2BF" />
    <circle cx="134.611" cy="93.8077" r="2" fill="#ABB2BF" />
    <circle cx="146.667" cy="93.8077" r="2" fill="#ABB2BF" />
    <circle cx="158.722" cy="93.8077" r="2" fill="#ABB2BF" />
    <circle cx="170.778" cy="93.8077" r="2" fill="#ABB2BF" />
    <circle cx="182.833" cy="93.8077" r="2" fill="#ABB2BF" />
    <circle cx="194.889" cy="93.8077" r="2" fill="#ABB2BF" />
    <circle cx="206.944" cy="93.8077" r="2" fill="#ABB2BF" />
    <circle cx="219" cy="93.8077" r="2" fill="#ABB2BF" />
    <circle cx="2" cy="102.154" r="2" fill="#ABB2BF" />
    <circle cx="14.0555" cy="102.154" r="2" fill="#ABB2BF" />
    <circle cx="26.1111" cy="102.154" r="2" fill="#ABB2BF" />
    <circle cx="38.1667" cy="102.154" r="2" fill="#ABB2BF" />
    <circle cx="50.2222" cy="102.154" r="2" fill="#ABB2BF" />
    <circle cx="62.2778" cy="102.154" r="2" fill="#ABB2BF" />
    <circle cx="74.3333" cy="102.154" r="2" fill="#ABB2BF" />
    <circle cx="86.3889" cy="102.154" r="2" fill="#ABB2BF" />
    <circle cx="98.4445" cy="102.154" r="2" fill="#ABB2BF" />
    <circle cx="110.5" cy="102.154" r="2" fill="#ABB2BF" />
    <circle cx="122.556" cy="102.154" r="2" fill="#ABB2BF" />
    <circle cx="134.611" cy="102.154" r="2" fill="#ABB2BF" />
    <circle cx="146.667" cy="102.154" r="2" fill="#ABB2BF" />
    <circle cx="158.722" cy="102.154" r="2" fill="#ABB2BF" />
    <circle cx="170.778" cy="102.154" r="2" fill="#ABB2BF" />
    <circle cx="182.833" cy="102.154" r="2" fill="#ABB2BF" />
    <circle cx="194.889" cy="102.154" r="2" fill="#ABB2BF" />
    <circle cx="206.944" cy="102.154" r="2" fill="#ABB2BF" />
    <circle cx="219" cy="102.154" r="2" fill="#ABB2BF" />
    <circle cx="2" cy="110.5" r="2" fill="#ABB2BF" />
    <circle cx="14.0555" cy="110.5" r="2" fill="#ABB2BF" />
    <circle cx="26.1111" cy="110.5" r="2" fill="#ABB2BF" />
    <circle cx="38.1667" cy="110.5" r="2" fill="#ABB2BF" />
    <circle cx="50.2222" cy="110.5" r="2" fill="#ABB2BF" />
    <circle cx="62.2778" cy="110.5" r="2" fill="#ABB2BF" />
    <circle cx="74.3333" cy="110.5" r="2" fill="#ABB2BF" />
    <circle cx="86.3889" cy="110.5" r="2" fill="#ABB2BF" />
    <circle cx="98.4445" cy="110.5" r="2" fill="#ABB2BF" />
    <circle cx="110.5" cy="110.5" r="2" fill="#ABB2BF" />
    <circle cx="122.556" cy="110.5" r="2" fill="#ABB2BF" />
    <circle cx="134.611" cy="110.5" r="2" fill="#ABB2BF" />
    <circle cx="146.667" cy="110.5" r="2" fill="#ABB2BF" />
    <circle cx="158.722" cy="110.5" r="2" fill="#ABB2BF" />
    <circle cx="170.778" cy="110.5" r="2" fill="#ABB2BF" />
    <circle cx="182.833" cy="110.5" r="2" fill="#ABB2BF" />
    <circle cx="194.889" cy="110.5" r="2" fill="#ABB2BF" />
    <circle cx="206.944" cy="110.5" r="2" fill="#ABB2BF" />
    <circle cx="219" cy="110.5" r="2" fill="#ABB2BF" />
    <circle cx="2" cy="118.846" r="2" fill="#ABB2BF" />
    <circle cx="14.0555" cy="118.846" r="2" fill="#ABB2BF" />
    <circle cx="26.1111" cy="118.846" r="2" fill="#ABB2BF" />
    <circle cx="38.1667" cy="118.846" r="2" fill="#ABB2BF" />
    <circle cx="50.2222" cy="118.846" r="2" fill="#ABB2BF" />
    <circle cx="62.2778" cy="118.846" r="2" fill="#ABB2BF" />
    <circle cx="74.3333" cy="118.846" r="2" fill="#ABB2BF" />
    <circle cx="86.3889" cy="118.846" r="2" fill="#ABB2BF" />
    <circle cx="98.4445" cy="118.846" r="2" fill="#ABB2BF" />
    <circle cx="110.5" cy="118.846" r="2" fill="#ABB2BF" />
    <circle cx="122.556" cy="118.846" r="2" fill="#ABB2BF" />
    <circle cx="134.611" cy="118.846" r="2" fill="#ABB2BF" />
    <circle cx="146.667" cy="118.846" r="2" fill="#ABB2BF" />
    <circle cx="158.722" cy="118.846" r="2" fill="#ABB2BF" />
    <circle cx="170.778" cy="118.846" r="2" fill="#ABB2BF" />
    <circle cx="182.833" cy="118.846" r="2" fill="#ABB2BF" />
    <circle cx="194.889" cy="118.846" r="2" fill="#ABB2BF" />
    <circle cx="206.944" cy="118.846" r="2" fill="#ABB2BF" />
    <circle cx="219" cy="118.846" r="2" fill="#ABB2BF" />
    <circle cx="2" cy="127.192" r="2" fill="#ABB2BF" />
    <circle cx="14.0555" cy="127.192" r="2" fill="#ABB2BF" />
    <circle cx="26.1111" cy="127.192" r="2" fill="#ABB2BF" />
    <circle cx="38.1667" cy="127.192" r="2" fill="#ABB2BF" />
    <circle cx="50.2222" cy="127.192" r="2" fill="#ABB2BF" />
    <circle cx="62.2778" cy="127.192" r="2" fill="#ABB2BF" />
    <circle cx="74.3333" cy="127.192" r="2" fill="#ABB2BF" />
    <circle cx="86.3889" cy="127.192" r="2" fill="#ABB2BF" />
    <circle cx="98.4445" cy="127.192" r="2" fill="#ABB2BF" />
    <circle cx="110.5" cy="127.192" r="2" fill="#ABB2BF" />
    <circle cx="122.556" cy="127.192" r="2" fill="#ABB2BF" />
    <circle cx="134.611" cy="127.192" r="2" fill="#ABB2BF" />
    <circle cx="146.667" cy="127.192" r="2" fill="#ABB2BF" />
    <circle cx="158.722" cy="127.192" r="2" fill="#ABB2BF" />
    <circle cx="170.778" cy="127.192" r="2" fill="#ABB2BF" />
    <circle cx="182.833" cy="127.192" r="2" fill="#ABB2BF" />
    <circle cx="194.889" cy="127.192" r="2" fill="#ABB2BF" />
    <circle cx="206.944" cy="127.192" r="2" fill="#ABB2BF" />
    <circle cx="219" cy="127.192" r="2" fill="#ABB2BF" />
    <circle cx="2" cy="135.538" r="2" fill="#ABB2BF" />
    <circle cx="14.0555" cy="135.538" r="2" fill="#ABB2BF" />
    <circle cx="26.1111" cy="135.538" r="2" fill="#ABB2BF" />
    <circle cx="38.1667" cy="135.538" r="2" fill="#ABB2BF" />
    <circle cx="50.2222" cy="135.538" r="2" fill="#ABB2BF" />
    <circle cx="62.2778" cy="135.538" r="2" fill="#ABB2BF" />
    <circle cx="74.3333" cy="135.538" r="2" fill="#ABB2BF" />
    <circle cx="86.3889" cy="135.538" r="2" fill="#ABB2BF" />
    <circle cx="98.4445" cy="135.538" r="2" fill="#ABB2BF" />
    <circle cx="110.5" cy="135.538" r="2" fill="#ABB2BF" />
    <circle cx="122.556" cy="135.538" r="2" fill="#ABB2BF" />
    <circle cx="134.611" cy="135.538" r="2" fill="#ABB2BF" />
    <circle cx="146.667" cy="135.538" r="2" fill="#ABB2BF" />
    <circle cx="158.722" cy="135.538" r="2" fill="#ABB2BF" />
    <circle cx="170.778" cy="135.538" r="2" fill="#ABB2BF" />
    <circle cx="182.833" cy="135.538" r="2" fill="#ABB2BF" />
    <circle cx="194.889" cy="135.538" r="2" fill="#ABB2BF" />
    <circle cx="206.944" cy="135.538" r="2" fill="#ABB2BF" />
    <circle cx="219" cy="135.538" r="2" fill="#ABB2BF" />
    <circle cx="2" cy="143.885" r="2" fill="#ABB2BF" />
    <circle cx="14.0555" cy="143.885" r="2" fill="#ABB2BF" />
    <circle cx="26.1111" cy="143.885" r="2" fill="#ABB2BF" />
    <circle cx="38.1667" cy="143.885" r="2" fill="#ABB2BF" />
    <circle cx="50.2222" cy="143.885" r="2" fill="#ABB2BF" />
    <circle cx="62.2778" cy="143.885" r="2" fill="#ABB2BF" />
    <circle cx="74.3333" cy="143.885" r="2" fill="#ABB2BF" />
    <circle cx="86.3889" cy="143.885" r="2" fill="#ABB2BF" />
    <circle cx="98.4445" cy="143.885" r="2" fill="#ABB2BF" />
    <circle cx="110.5" cy="143.885" r="2" fill="#ABB2BF" />
    <circle cx="122.556" cy="143.885" r="2" fill="#ABB2BF" />
    <circle cx="134.611" cy="143.885" r="2" fill="#ABB2BF" />
    <circle cx="146.667" cy="143.885" r="2" fill="#ABB2BF" />
    <circle cx="158.722" cy="143.885" r="2" fill="#ABB2BF" />
    <circle cx="170.778" cy="143.885" r="2" fill="#ABB2BF" />
    <circle cx="182.833" cy="143.885" r="2" fill="#ABB2BF" />
    <circle cx="194.889" cy="143.885" r="2" fill="#ABB2BF" />
    <circle cx="206.944" cy="143.885" r="2" fill="#ABB2BF" />
    <circle cx="219" cy="143.885" r="2" fill="#ABB2BF" />
    <circle cx="2" cy="152.231" r="2" fill="#ABB2BF" />
    <circle cx="14.0555" cy="152.231" r="2" fill="#ABB2BF" />
    <circle cx="26.1111" cy="152.231" r="2" fill="#ABB2BF" />
    <circle cx="38.1667" cy="152.231" r="2" fill="#ABB2BF" />
    <circle cx="50.2222" cy="152.231" r="2" fill="#ABB2BF" />
    <circle cx="62.2778" cy="152.231" r="2" fill="#ABB2BF" />
    <circle cx="74.3333" cy="152.231" r="2" fill="#ABB2BF" />
    <circle cx="86.3889" cy="152.231" r="2" fill="#ABB2BF" />
    <circle cx="98.4445" cy="152.231" r="2" fill="#ABB2BF" />
    <circle cx="110.5" cy="152.231" r="2" fill="#ABB2BF" />
    <circle cx="122.556" cy="152.231" r="2" fill="#ABB2BF" />
    <circle cx="134.611" cy="152.231" r="2" fill="#ABB2BF" />
    <circle cx="146.667" cy="152.231" r="2" fill="#ABB2BF" />
    <circle cx="158.722" cy="152.231" r="2" fill="#ABB2BF" />
    <circle cx="170.778" cy="152.231" r="2" fill="#ABB2BF" />
    <circle cx="182.833" cy="152.231" r="2" fill="#ABB2BF" />
    <circle cx="194.889" cy="152.231" r="2" fill="#ABB2BF" />
    <circle cx="206.944" cy="152.231" r="2" fill="#ABB2BF" />
    <circle cx="219" cy="152.231" r="2" fill="#ABB2BF" />
    <circle cx="2" cy="160.577" r="2" fill="#ABB2BF" />
    <circle cx="14.0555" cy="160.577" r="2" fill="#ABB2BF" />
    <circle cx="26.1111" cy="160.577" r="2" fill="#ABB2BF" />
    <circle cx="38.1667" cy="160.577" r="2" fill="#ABB2BF" />
    <circle cx="50.2222" cy="160.577" r="2" fill="#ABB2BF" />
    <circle cx="62.2778" cy="160.577" r="2" fill="#ABB2BF" />
    <circle cx="74.3333" cy="160.577" r="2" fill="#ABB2BF" />
    <circle cx="86.3889" cy="160.577" r="2" fill="#ABB2BF" />
    <circle cx="98.4445" cy="160.577" r="2" fill="#ABB2BF" />
    <circle cx="110.5" cy="160.577" r="2" fill="#ABB2BF" />
    <circle cx="122.556" cy="160.577" r="2" fill="#ABB2BF" />
    <circle cx="134.611" cy="160.577" r="2" fill="#ABB2BF" />
    <circle cx="146.667" cy="160.577" r="2" fill="#ABB2BF" />
    <circle cx="158.722" cy="160.577" r="2" fill="#ABB2BF" />
    <circle cx="170.778" cy="160.577" r="2" fill="#ABB2BF" />
    <circle cx="182.833" cy="160.577" r="2" fill="#ABB2BF" />
    <circle cx="194.889" cy="160.577" r="2" fill="#ABB2BF" />
    <circle cx="206.944" cy="160.577" r="2" fill="#ABB2BF" />
    <circle cx="219" cy="160.577" r="2" fill="#ABB2BF" />
    <circle cx="2" cy="168.923" r="2" fill="#ABB2BF" />
    <circle cx="14.0555" cy="168.923" r="2" fill="#ABB2BF" />
    <circle cx="26.1111" cy="168.923" r="2" fill="#ABB2BF" />
    <circle cx="38.1667" cy="168.923" r="2" fill="#ABB2BF" />
    <circle cx="50.2222" cy="168.923" r="2" fill="#ABB2BF" />
    <circle cx="62.2778" cy="168.923" r="2" fill="#ABB2BF" />
    <circle cx="74.3333" cy="168.923" r="2" fill="#ABB2BF" />
    <circle cx="86.3889" cy="168.923" r="2" fill="#ABB2BF" />
    <circle cx="98.4445" cy="168.923" r="2" fill="#ABB2BF" />
    <circle cx="110.5" cy="168.923" r="2" fill="#ABB2BF" />
    <circle cx="122.556" cy="168.923" r="2" fill="#ABB2BF" />
    <circle cx="134.611" cy="168.923" r="2" fill="#ABB2BF" />
    <circle cx="146.667" cy="168.923" r="2" fill="#ABB2BF" />
    <circle cx="158.722" cy="168.923" r="2" fill="#ABB2BF" />
    <circle cx="170.778" cy="168.923" r="2" fill="#ABB2BF" />
    <circle cx="182.833" cy="168.923" r="2" fill="#ABB2BF" />
    <circle cx="194.889" cy="168.923" r="2" fill="#ABB2BF" />
    <circle cx="206.944" cy="168.923" r="2" fill="#ABB2BF" />
    <circle cx="219" cy="168.923" r="2" fill="#ABB2BF" />
    <circle cx="2" cy="177.269" r="2" fill="#ABB2BF" />
    <circle cx="14.0555" cy="177.269" r="2" fill="#ABB2BF" />
    <circle cx="26.1111" cy="177.269" r="2" fill="#ABB2BF" />
    <circle cx="38.1667" cy="177.269" r="2" fill="#ABB2BF" />
    <circle cx="50.2222" cy="177.269" r="2" fill="#ABB2BF" />
    <circle cx="62.2778" cy="177.269" r="2" fill="#ABB2BF" />
    <circle cx="74.3333" cy="177.269" r="2" fill="#ABB2BF" />
    <circle cx="86.3889" cy="177.269" r="2" fill="#ABB2BF" />
    <circle cx="98.4445" cy="177.269" r="2" fill="#ABB2BF" />
    <circle cx="110.5" cy="177.269" r="2" fill="#ABB2BF" />
    <circle cx="122.556" cy="177.269" r="2" fill="#ABB2BF" />
    <circle cx="134.611" cy="177.269" r="2" fill="#ABB2BF" />
    <circle cx="146.667" cy="177.269" r="2" fill="#ABB2BF" />
    <circle cx="158.722" cy="177.269" r="2" fill="#ABB2BF" />
    <circle cx="170.778" cy="177.269" r="2" fill="#ABB2BF" />
    <circle cx="182.833" cy="177.269" r="2" fill="#ABB2BF" />
    <circle cx="194.889" cy="177.269" r="2" fill="#ABB2BF" />
    <circle cx="206.944" cy="177.269" r="2" fill="#ABB2BF" />
    <circle cx="219" cy="177.269" r="2" fill="#ABB2BF" />
    <circle cx="2" cy="185.615" r="2" fill="#ABB2BF" />
    <circle cx="14.0555" cy="185.615" r="2" fill="#ABB2BF" />
    <circle cx="26.1111" cy="185.615" r="2" fill="#ABB2BF" />
    <circle cx="38.1667" cy="185.615" r="2" fill="#ABB2BF" />
    <circle cx="50.2222" cy="185.615" r="2" fill="#ABB2BF" />
    <circle cx="62.2778" cy="185.615" r="2" fill="#ABB2BF" />
    <circle cx="74.3333" cy="185.615" r="2" fill="#ABB2BF" />
    <circle cx="86.3889" cy="185.615" r="2" fill="#ABB2BF" />
    <circle cx="98.4445" cy="185.615" r="2" fill="#ABB2BF" />
    <circle cx="110.5" cy="185.615" r="2" fill="#ABB2BF" />
    <circle cx="122.556" cy="185.615" r="2" fill="#ABB2BF" />
    <circle cx="134.611" cy="185.615" r="2" fill="#ABB2BF" />
    <circle cx="146.667" cy="185.615" r="2" fill="#ABB2BF" />
    <circle cx="158.722" cy="185.615" r="2" fill="#ABB2BF" />
    <circle cx="170.778" cy="185.615" r="2" fill="#ABB2BF" />
    <circle cx="182.833" cy="185.615" r="2" fill="#ABB2BF" />
    <circle cx="194.889" cy="185.615" r="2" fill="#ABB2BF" />
    <circle cx="206.944" cy="185.615" r="2" fill="#ABB2BF" />
    <circle cx="219" cy="185.615" r="2" fill="#ABB2BF" />
    <circle cx="2" cy="193.962" r="2" fill="#ABB2BF" />
    <circle cx="14.0555" cy="193.962" r="2" fill="#ABB2BF" />
    <circle cx="26.1111" cy="193.962" r="2" fill="#ABB2BF" />
    <circle cx="38.1667" cy="193.962" r="2" fill="#ABB2BF" />
    <circle cx="50.2222" cy="193.962" r="2" fill="#ABB2BF" />
    <circle cx="62.2778" cy="193.962" r="2" fill="#ABB2BF" />
    <circle cx="74.3333" cy="193.962" r="2" fill="#ABB2BF" />
    <circle cx="86.3889" cy="193.962" r="2" fill="#ABB2BF" />
    <circle cx="98.4445" cy="193.962" r="2" fill="#ABB2BF" />
    <circle cx="110.5" cy="193.962" r="2" fill="#ABB2BF" />
    <circle cx="122.556" cy="193.962" r="2" fill="#ABB2BF" />
    <circle cx="134.611" cy="193.962" r="2" fill="#ABB2BF" />
    <circle cx="146.667" cy="193.962" r="2" fill="#ABB2BF" />
    <circle cx="158.722" cy="193.962" r="2" fill="#ABB2BF" />
    <circle cx="170.778" cy="193.962" r="2" fill="#ABB2BF" />
    <circle cx="182.833" cy="193.962" r="2" fill="#ABB2BF" />
    <circle cx="194.889" cy="193.962" r="2" fill="#ABB2BF" />
    <circle cx="206.944" cy="193.962" r="2" fill="#ABB2BF" />
    <circle cx="219" cy="193.962" r="2" fill="#ABB2BF" />
    <circle cx="2" cy="202.308" r="2" fill="#ABB2BF" />
    <circle cx="14.0555" cy="202.308" r="2" fill="#ABB2BF" />
    <circle cx="26.1111" cy="202.308" r="2" fill="#ABB2BF" />
    <circle cx="38.1667" cy="202.308" r="2" fill="#ABB2BF" />
    <circle cx="50.2222" cy="202.308" r="2" fill="#ABB2BF" />
    <circle cx="62.2778" cy="202.308" r="2" fill="#ABB2BF" />
    <circle cx="74.3333" cy="202.308" r="2" fill="#ABB2BF" />
    <circle cx="86.3889" cy="202.308" r="2" fill="#ABB2BF" />
    <circle cx="98.4445" cy="202.308" r="2" fill="#ABB2BF" />
    <circle cx="110.5" cy="202.308" r="2" fill="#ABB2BF" />
    <circle cx="122.556" cy="202.308" r="2" fill="#ABB2BF" />
    <circle cx="134.611" cy="202.308" r="2" fill="#ABB2BF" />
    <circle cx="146.667" cy="202.308" r="2" fill="#ABB2BF" />
    <circle cx="158.722" cy="202.308" r="2" fill="#ABB2BF" />
    <circle cx="170.778" cy="202.308" r="2" fill="#ABB2BF" />
    <circle cx="182.833" cy="202.308" r="2" fill="#ABB2BF" />
    <circle cx="194.889" cy="202.308" r="2" fill="#ABB2BF" />
    <circle cx="206.944" cy="202.308" r="2" fill="#ABB2BF" />
    <circle cx="219" cy="202.308" r="2" fill="#ABB2BF" />
    <circle cx="2" cy="210.654" r="2" fill="#ABB2BF" />
    <circle cx="14.0555" cy="210.654" r="2" fill="#ABB2BF" />
    <circle cx="26.1111" cy="210.654" r="2" fill="#ABB2BF" />
    <circle cx="38.1667" cy="210.654" r="2" fill="#ABB2BF" />
    <circle cx="50.2222" cy="210.654" r="2" fill="#ABB2BF" />
    <circle cx="62.2778" cy="210.654" r="2" fill="#ABB2BF" />
    <circle cx="74.3333" cy="210.654" r="2" fill="#ABB2BF" />
    <circle cx="86.3889" cy="210.654" r="2" fill="#ABB2BF" />
    <circle cx="98.4445" cy="210.654" r="2" fill="#ABB2BF" />
    <circle cx="110.5" cy="210.654" r="2" fill="#ABB2BF" />
    <circle cx="122.556" cy="210.654" r="2" fill="#ABB2BF" />
    <circle cx="134.611" cy="210.654" r="2" fill="#ABB2BF" />
    <circle cx="146.667" cy="210.654" r="2" fill="#ABB2BF" />
    <circle cx="158.722" cy="210.654" r="2" fill="#ABB2BF" />
    <circle cx="170.778" cy="210.654" r="2" fill="#ABB2BF" />
    <circle cx="182.833" cy="210.654" r="2" fill="#ABB2BF" />
    <circle cx="194.889" cy="210.654" r="2" fill="#ABB2BF" />
    <circle cx="206.944" cy="210.654" r="2" fill="#ABB2BF" />
    <circle cx="219" cy="210.654" r="2" fill="#ABB2BF" />
    <circle cx="2" cy="219" r="2" fill="#ABB2BF" />
    <circle cx="14.0555" cy="219" r="2" fill="#ABB2BF" />
    <circle cx="26.1111" cy="219" r="2" fill="#ABB2BF" />
    <circle cx="38.1667" cy="219" r="2" fill="#ABB2BF" />
    <circle cx="50.2222" cy="219" r="2" fill="#ABB2BF" />
    <circle cx="62.2778" cy="219" r="2" fill="#ABB2BF" />
    <circle cx="74.3333" cy="219" r="2" fill="#ABB2BF" />
    <circle cx="86.3889" cy="219" r="2" fill="#ABB2BF" />
    <circle cx="98.4445" cy="219" r="2" fill="#ABB2BF" />
    <circle cx="110.5" cy="219" r="2" fill="#ABB2BF" />
    <circle cx="122.556" cy="219" r="2" fill="#ABB2BF" />
    <circle cx="134.611" cy="219" r="2" fill="#ABB2BF" />
    <circle cx="146.667" cy="219" r="2" fill="#ABB2BF" />
    <circle cx="158.722" cy="219" r="2" fill="#ABB2BF" />
    <circle cx="170.778" cy="219" r="2" fill="#ABB2BF" />
    <circle cx="182.833" cy="219" r="2" fill="#ABB2BF" />
    <circle cx="194.889" cy="219" r="2" fill="#ABB2BF" />
    <circle cx="206.944" cy="219" r="2" fill="#ABB2BF" />
    <circle cx="219" cy="219" r="2" fill="#ABB2BF" />
</svg>