<svg width="1000" height="1000" viewBox="0 0 1000 1000" fill="none" xmlns="http://www.w3.org/2000/svg">
    <!-- <rect width="1000" height="1000" fill="#1E1E1E"/> -->
    <g clip-path="url(#clip0_0_1)">
        <mask id="mask0_0_1" style="mask-type:luminance" maskUnits="userSpaceOnUse" x="0" y="0" width="1000"
            height="1000">
            <path d="M1000 0H0V1000H1000V0Z" fill="white" />
        </mask>
        <g mask="url(#mask0_0_1)">
            <!-- <path d="M1000 0H0V1000H1000V0Z" fill="#1E1E1E"/>
<path d="M1000 0H0V1000H1000V0Z" fill="white"/> -->
            <path d="M321.672 484.438L802 975L285.938 718.609L19 482L321.672 484.438Z" fill="url(#paint0_linear_0_1)" />
            <path d="M694 265.767L788.021 947L901 381.456L877.219 25L694 265.767Z" fill="url(#paint1_linear_0_1)" />
            <path d="M802.099 975L982 527.517L854.369 457L583.133 527.85L357.385 700.614L342 841.222L802.099 975Z"
                fill="#FF00C8" />
        </g>
    </g>
    <defs>
        <linearGradient id="paint0_linear_0_1" x1="272.719" y1="592.393" x2="602.58" y2="887.161"
            gradientUnits="userSpaceOnUse">
            <stop stop-color="#B4008D" />
            <stop offset="0.856055" stop-color="#6C0055" />
        </linearGradient>
        <linearGradient id="paint1_linear_0_1" x1="809.298" y1="293.425" x2="839.629" y2="735.427"
            gradientUnits="userSpaceOnUse">
            <stop stop-color="#B4008D" />
            <stop offset="0.856055" stop-color="#6C0055" />
        </linearGradient>
        <clipPath id="clip0_0_1">
            <rect width="1000" height="1000" fill="white" />
        </clipPath>
    </defs>
</svg>